HIERARCHY
ROOT Hips
{
	OFFSET 0.000000 0.000000 0.000000
	CHANNELS 6 Xposition Yposition Zposition Zrotation Yrotation Xrotation 
	JOINT LeftUpLeg_virtual
	{
		OFFSET 0.000000 0.000000 0.000000
		CHANNELS 3 Zrotation Yrotation Xrotation
		JOINT LeftUpLeg
		{
			OFFSET 8.479694 -4.795517 -0.379053
			CHANNELS 3 Zrotation Yrotation Xrotation
			JOINT LeftLeg
			{
				OFFSET 0.485052 -32.551468 0.112863
				CHANNELS 3 Zrotation Yrotation Xrotation
				JOINT LeftFoot
				{
					OFFSET 0.438033 -32.635670 -3.012641
					CHANNELS 3 Zrotation Yrotation Xrotation
					JOINT LeftToeBase
					{
						OFFSET 0.970169 -13.225353 11.864223
						CHANNELS 3 Zrotation Yrotation Xrotation
						End Site
						{
							OFFSET 0.000000 0.000000 0.000000
						}
					}
				}
			}
		}
	}
	JOINT RightUpLeg_virtual
	{
		OFFSET 0.000000 0.000000 0.000000
		CHANNELS 3 Zrotation Yrotation Xrotation
		JOINT RightUpLeg
		{
			OFFSET -8.479694 -4.795517 -0.379053
			CHANNELS 3 Zrotation Yrotation Xrotation
			JOINT RightLeg
			{
				OFFSET -0.484100 -32.551483 0.112903
				CHANNELS 3 Zrotation Yrotation Xrotation
				JOINT RightFoot
				{
					OFFSET -0.438985 -32.635651 -3.012681
					CHANNELS 3 Zrotation Yrotation Xrotation
					JOINT RightToeBase
					{
						OFFSET -0.970169 -13.225354 11.864223
						CHANNELS 3 Zrotation Yrotation Xrotation
						End Site
						{
							OFFSET 0.000000 0.000000 0.000000
						}
					}
				}
			}
		}
	}
	JOINT Spine_virtual
	{
		OFFSET 0.000000 0.000000 0.000000
		CHANNELS 3 Zrotation Yrotation Xrotation
		JOINT Spine
		{
			OFFSET 0.000000 7.722015 1.166203
			CHANNELS 3 Zrotation Yrotation Xrotation
			JOINT Spine1
			{
				OFFSET 0.000000 12.024086 0.248766
				CHANNELS 3 Zrotation Yrotation Xrotation
				JOINT Spine2
				{
					OFFSET -0.000000 11.503036 -0.491240
					CHANNELS 3 Zrotation Yrotation Xrotation
					JOINT Neck_virtual
					{
						OFFSET 0.000000 0.000000 0.000000
						CHANNELS 3 Zrotation Yrotation Xrotation
						JOINT Neck
						{
							OFFSET 0.000000 18.430687 -3.123054
							CHANNELS 3 Zrotation Yrotation Xrotation
							JOINT Head
							{
								OFFSET -0.000000 9.051071 1.034021
								CHANNELS 3 Zrotation Yrotation Xrotation
								End Site
								{
									OFFSET 0.000000 0.000000 0.000000
								}
							}
						}
					}
					JOINT LeftShoulder_virtual
					{
						OFFSET 0.000000 0.000000 0.000000
						CHANNELS 3 Zrotation Yrotation Xrotation
						JOINT LeftShoulder
						{
							OFFSET 6.197824 13.665230 -4.064723
							CHANNELS 3 Zrotation Yrotation Xrotation
							JOINT LeftArm
							{
								OFFSET 7.778132 -0.187073 -1.709282
								CHANNELS 3 Zrotation Yrotation Xrotation
								JOINT LeftForeArm
								{
									OFFSET 21.954697 0.000000 -2.041093
									CHANNELS 3 Zrotation Yrotation Xrotation
									JOINT LeftHand
									{
										OFFSET 22.992908 0.000000 -0.870901
										CHANNELS 3 Zrotation Yrotation Xrotation
										End Site
										{
											OFFSET 0.000000 0.000000 0.000000
										}
									}
								}
							}
						}
					}
					JOINT RightShoulder_virtual
					{
						OFFSET 0.000000 0.000000 0.000000
						CHANNELS 3 Zrotation Yrotation Xrotation
						JOINT RightShoulder
						{
							OFFSET -6.197824 13.665230 -4.064723
							CHANNELS 3 Zrotation Yrotation Xrotation
							JOINT RightArm
							{
								OFFSET -7.778132 -0.187073 -1.709282
								CHANNELS 3 Zrotation Yrotation Xrotation
								JOINT RightForeArm
								{
									OFFSET -21.954697 0.000000 -2.041093
									CHANNELS 3 Zrotation Yrotation Xrotation
									JOINT RightHand
									{
										OFFSET -22.992908 0.000000 -0.870901
										CHANNELS 3 Zrotation Yrotation Xrotation
										End Site
										{
											OFFSET 0.000000 0.000000 0.000000
										}
									}
								}
							}
						}
					}
				}
			}
		}
	}
}
MOTION
Frames: 14
Frame Time: 0.033333
27.401266 79.130211 -90.836372 173.932939 -88.675294 -173.907394 -1.301787 -2.566396 11.052113 1.955574 -1.064739 -33.881263 10.779334 6.837544 26.121263 -5.170634 -2.450168 -4.395475 0.000000 0.000000 0.000000 2.099773 -3.432320 10.426157 -5.861334 11.610445 -32.633466 0.338475 7.834329 36.570394 12.606176 9.114857 -16.707626 0.000000 0.000000 0.000000 3.131454 0.209559 -2.228042 -1.940371 0.360813 -7.242435 -1.419597 -1.820923 11.761739 -0.002026 0.059385 -0.014801 -1.563905 -0.320057 12.358906 2.301927 -1.603594 0.279987 0.000000 0.000000 0.000000 0.225609 0.103544 9.547587 -7.922401 -7.933350 3.358320 -60.518987 -4.091732 -9.951003 -2.561916 -17.974790 2.735881 0.000000 0.000000 0.000000 -4.535179 1.673540 8.624101 28.700694 1.253930 9.832436 47.901640 5.764848 -0.799228 -5.960850 18.328594 -3.323983 0.000000 0.000000 0.000000 
27.361076 79.120979 -90.927933 173.607371 -88.415262 -173.594367 -1.294223 -2.654840 11.061230 1.975902 -1.080944 -33.810577 11.091861 6.750393 26.438470 -4.833699 -2.056089 -4.182606 0.000000 0.000000 0.000000 2.087397 -3.519118 10.374476 -5.828484 11.477429 -32.714707 0.666460 8.167706 36.244529 13.025647 9.759053 -17.035708 0.000000 0.000000 0.000000 3.113910 0.212955 -2.190728 -1.954387 0.381948 -7.283873 -1.439697 -1.796862 11.739000 0.035986 0.087185 -0.028754 -1.642070 -0.557551 12.337878 2.232049 -1.479653 0.309478 0.000000 0.000000 0.000000 0.197181 0.177329 9.494896 -7.952426 -7.876134 3.391572 -60.486311 -4.089076 -9.991126 -2.543351 -18.005687 2.740188 0.000000 0.000000 0.000000 -4.598868 1.713550 8.641044 28.744318 1.274067 9.810486 47.971492 5.807236 -0.762011 -5.925514 18.385906 -3.015960 0.000000 0.000000 0.000000 
27.293774 79.117287 -91.062813 173.802319 -88.365777 -173.794655 -1.345479 -2.737034 11.074496 2.073988 -1.144741 -33.749081 11.144167 6.573504 26.468054 -4.772357 -1.988768 -4.248469 0.000000 0.000000 0.000000 1.974596 -3.545599 10.385024 -5.703887 11.405426 -32.681243 0.746393 7.913720 36.224742 13.079952 9.883398 -17.000177 0.000000 0.000000 0.000000 3.110078 0.181531 -2.194925 -1.927734 0.401875 -7.292262 -1.451414 -1.801473 11.726700 -0.012216 0.100792 0.003505 -1.554006 -0.415966 12.313806 2.351327 -1.544459 0.344218 0.000000 0.000000 0.000000 0.269900 0.140535 9.455575 -7.960606 -7.889230 3.383224 -60.503919 -4.183921 -10.051655 -2.541308 -17.929183 2.735798 0.000000 0.000000 0.000000 -4.537520 1.648986 8.602551 28.804817 1.320158 9.803641 48.067798 5.911054 -0.748334 -6.006184 18.521164 -3.316572 0.000000 0.000000 0.000000 
27.201704 79.113434 -91.200943 175.156691 -88.365777 -175.123154 -1.349882 -2.791275 11.065338 2.210449 -1.155315 -33.687897 11.168845 6.363601 26.496097 -4.711154 -1.934882 -4.367366 0.000000 0.000000 0.000000 1.904930 -3.558022 10.404996 -5.511037 11.271083 -32.593704 0.843928 7.797468 36.158383 13.089429 9.944638 -16.998918 0.000000 0.000000 0.000000 3.115993 0.147677 -2.206454 -1.845722 0.441963 -7.337186 -1.428287 -1.807687 11.687185 0.020862 0.107382 -0.015115 -1.610081 -0.585385 12.332025 2.376002 -1.409529 0.419598 0.000000 0.000000 0.000000 0.191729 0.153738 9.482858 -7.924988 -7.900356 3.381429 -60.546950 -4.256468 -10.055709 -2.556040 -17.723081 2.945704 0.000000 0.000000 0.000000 -4.612589 1.734658 8.560904 28.993716 1.246583 9.873364 48.206720 6.096083 -0.977500 -5.971463 18.712329 -3.128991 0.000000 0.000000 0.000000 
27.097147 79.108231 -91.342110 175.603822 -88.360634 -175.560259 -1.363142 -2.810061 11.081462 2.338562 -1.128459 -33.605159 11.157458 6.194591 26.528132 -4.665332 -1.902111 -4.525390 0.000000 0.000000 0.000000 1.849215 -3.560938 10.416253 -5.359562 11.203075 -32.496479 0.901486 7.688477 36.070980 13.136049 9.988727 -17.015780 0.000000 0.000000 0.000000 3.097942 0.093928 -2.209731 -1.765165 0.513257 -7.385444 -1.410104 -1.795305 11.639677 0.035409 0.099723 0.052808 -1.604052 -0.669283 12.245975 2.522520 -1.403050 0.505530 0.000000 0.000000 0.000000 0.177278 0.152736 9.397063 -7.940671 -7.887929 3.396630 -60.650700 -4.254807 -9.961282 -2.564944 -17.429436 2.951288 0.000000 0.000000 0.000000 -4.583363 1.672970 8.495279 29.161646 1.350023 9.920316 48.299877 6.354618 -1.137618 -6.015233 18.862571 -3.318604 0.000000 0.000000 0.000000 
26.989210 79.100288 -91.487228 173.769506 -88.433519 -173.724851 -1.395959 -2.883799 11.076635 2.447251 -1.115664 -33.501569 11.127858 6.080046 26.522082 -4.645414 -1.879532 -4.627959 0.000000 0.000000 0.000000 1.774170 -3.602559 10.419077 -5.222492 11.088896 -32.405484 0.954335 7.581256 35.995425 13.228013 10.044730 -17.069379 0.000000 0.000000 0.000000 3.066417 0.042885 -2.257997 -1.708198 0.566583 -7.369419 -1.416801 -1.808868 11.616935 0.004328 0.108507 0.060631 -1.526287 -0.529465 12.218813 2.727830 -1.447777 0.576121 0.000000 0.000000 0.000000 0.263790 0.110803 9.361773 -7.975303 -7.852133 3.417086 -60.769600 -4.171009 -9.857560 -2.479564 -17.056883 2.961923 0.000000 0.000000 0.000000 -4.567044 1.658259 8.468543 29.248711 1.396276 9.990287 48.254323 6.540121 -1.372396 -6.074620 19.068440 -3.237033 0.000000 0.000000 0.000000 
26.871315 79.092529 -91.631660 172.925172 -88.525146 -172.908725 -1.418572 -2.957531 11.099972 2.560373 -1.050032 -33.390637 11.052515 5.977716 26.559710 -4.665234 -1.871656 -4.739265 0.000000 0.000000 0.000000 1.743599 -3.642520 10.447645 -5.071551 10.954498 -32.325144 0.996951 7.469108 35.970559 13.316153 10.096620 -17.136356 0.000000 0.000000 0.000000 3.031403 -0.023243 -2.295979 -1.639807 0.649405 -7.378425 -1.357356 -1.818371 11.656930 0.051461 0.072439 -0.035526 -1.553483 -0.720505 12.277980 2.881256 -1.451123 0.744645 0.000000 0.000000 0.000000 0.183147 0.057268 9.329642 -8.025722 -7.790149 3.495385 -61.092634 -3.927579 -9.720887 -2.506712 -16.659193 3.268116 0.000000 0.000000 0.000000 -4.601401 1.688675 8.479302 29.354811 1.470864 10.097531 48.185492 6.576577 -1.520710 -6.168921 19.254092 -3.397478 0.000000 0.000000 0.000000 
26.752924 79.087753 -91.763824 172.478177 -88.609840 -172.461689 -1.421422 -3.006882 11.132765 2.647899 -0.983788 -33.305812 10.997384 5.830560 26.570829 -4.704453 -1.844916 -4.833844 0.000000 0.000000 0.000000 1.749059 -3.660380 10.499515 -4.939657 10.807006 -32.276848 1.063849 7.427255 35.979179 13.375768 10.099199 -17.199641 0.000000 0.000000 0.000000 3.037967 -0.062478 -2.337653 -1.615980 0.723366 -7.401258 -1.305355 -1.816553 11.649514 -0.024326 0.063982 -0.037581 -1.440499 -0.466049 12.236257 3.046368 -1.491899 0.844052 0.000000 0.000000 0.000000 0.242771 0.130652 9.314031 -8.031257 -7.783083 3.556935 -61.390847 -3.598848 -9.730057 -2.421284 -16.243242 3.147251 0.000000 0.000000 0.000000 -4.532426 1.700836 8.443146 29.435260 1.549661 10.201253 48.140167 6.467881 -1.470886 -6.340564 19.459364 -3.471504 0.000000 0.000000 0.000000 
26.639036 79.088486 -91.886154 174.689164 -88.682999 -174.670791 -1.410001 -3.031814 11.175683 2.748048 -0.943255 -33.257332 10.928498 5.609452 26.561511 -4.751784 -1.789682 -4.963390 0.000000 0.000000 0.000000 1.788025 -3.661927 10.580276 -4.807783 10.651099 -32.235710 1.130988 7.438434 36.026567 13.390566 10.036574 -17.224093 0.000000 0.000000 0.000000 3.057855 -0.064838 -2.367620 -1.528742 0.783785 -7.394010 -1.335705 -1.800940 11.644173 0.020289 0.082628 -0.013021 -1.437678 -0.472307 12.147733 2.991123 -1.451920 0.968122 0.000000 0.000000 0.000000 0.212038 0.192342 9.326294 -8.012104 -7.759775 3.558546 -61.693199 -3.288446 -9.852141 -2.357960 -15.729451 3.129037 0.000000 0.000000 0.000000 -4.559039 1.694113 8.346890 29.576676 1.643698 10.331645 48.050125 6.262335 -1.427580 -6.509658 19.579661 -3.273410 0.000000 0.000000 0.000000 
26.525021 79.097595 -91.985649 172.854179 -88.761402 -172.810247 -1.436124 -3.061526 11.225880 2.806692 -0.878054 -33.209927 10.830520 5.517319 26.466153 -4.830907 -1.731764 -4.990407 0.000000 0.000000 0.000000 1.783893 -3.648766 10.654308 -4.703754 10.438074 -32.206541 1.179215 7.514737 36.083309 13.370005 9.981270 -17.240419 0.000000 0.000000 0.000000 3.003405 -0.079811 -2.417508 -1.508685 0.843647 -7.392470 -1.337444 -1.801702 11.633507 0.008327 0.043048 0.000748 -1.351047 -0.327693 12.101378 2.946296 -1.484429 1.043821 0.000000 0.000000 0.000000 0.314173 0.183843 9.199495 -7.978670 -7.663038 3.638628 -62.142905 -2.917034 -9.821069 -2.280275 -15.241147 3.339709 0.000000 0.000000 0.000000 -4.444662 1.759913 8.348362 29.612579 1.847985 10.459256 47.961493 6.050905 -1.635060 -6.699953 19.453501 -3.284227 0.000000 0.000000 0.000000 
26.428885 79.124229 -92.039948 174.647090 -88.867195 -174.611095 -1.429422 -3.079534 11.267383 2.893158 -0.746842 -33.155760 10.689296 5.467769 26.385728 -4.949575 -1.695407 -5.026728 0.000000 0.000000 0.000000 1.827036 -3.623419 10.710835 -4.592657 10.263444 -32.164952 1.224931 7.578672 36.100326 13.308065 9.908659 -17.205211 0.000000 0.000000 0.000000 2.965657 -0.068636 -2.395858 -1.440635 0.885509 -7.361544 -1.306524 -1.796677 11.625478 0.018428 0.056977 -0.025533 -1.378669 -0.618033 12.078469 2.693410 -1.473455 1.113031 0.000000 0.000000 0.000000 0.285404 0.252119 9.249501 -7.875647 -7.712812 3.608503 -62.503321 -2.784978 -9.825166 -2.158168 -14.571117 3.351985 0.000000 0.000000 0.000000 -4.421976 1.748297 8.330621 29.684255 2.018174 10.550510 47.893584 5.776250 -2.043791 -6.958323 19.255232 -3.361921 0.000000 0.000000 0.000000 
26.334478 79.159691 -92.062943 172.289650 -88.973398 -172.292287 -1.455228 -3.104008 11.312165 2.955754 -0.640360 -33.064864 10.550775 5.527841 26.277860 -5.073883 -1.652854 -4.989121 0.000000 0.000000 0.000000 1.813501 -3.541002 10.715261 -4.489038 9.958663 -32.022819 1.289295 7.648713 36.046696 13.251299 9.893122 -17.099671 0.000000 0.000000 0.000000 2.899284 -0.099085 -2.388585 -1.365939 0.903047 -7.269317 -1.306928 -1.792606 11.651404 -0.024450 0.018588 0.028778 -1.370914 -0.307908 11.936031 2.378596 -1.523772 1.148409 0.000000 0.000000 0.000000 0.344938 0.198017 9.041717 -7.841598 -7.617298 3.617872 -62.838949 -2.722943 -9.828965 -2.019214 -13.851945 3.324780 0.000000 0.000000 0.000000 -4.396889 1.800140 8.273513 29.659082 2.238566 10.602306 47.732784 5.483139 -2.739380 -7.197005 19.218260 -3.540599 0.000000 0.000000 0.000000 
26.232634 79.207146 -92.045486 175.553784 -89.042027 -175.591719 -1.453553 -3.112888 11.353079 3.013753 -0.548330 -32.985480 10.404125 5.674084 26.234116 -5.234324 -1.649953 -4.949273 0.000000 0.000000 0.000000 1.821052 -3.430759 10.695234 -4.395215 9.572790 -31.880325 1.384719 7.705805 36.092854 13.167648 9.869961 -16.947349 0.000000 0.000000 0.000000 2.889277 -0.061909 -2.369097 -1.210832 0.920589 -7.160923 -1.331261 -1.748778 11.654579 0.015726 0.053111 0.016260 -1.417406 -0.487051 11.903856 1.878860 -1.502292 1.185776 0.000000 0.000000 0.000000 0.279609 0.226012 9.065153 -7.817362 -7.641955 3.539383 -62.993721 -2.922921 -9.842863 -1.956245 -13.055031 3.450366 0.000000 0.000000 0.000000 -4.423169 1.832666 8.267145 29.611701 2.285760 10.628257 47.732142 4.863988 -3.472040 -7.519494 19.818137 -3.636949 0.000000 0.000000 0.000000 
26.137003 79.263054 -92.010063 173.515956 -89.066650 -173.556637 -1.457368 -3.075683 11.393842 3.137307 -0.498316 -32.907421 10.247238 5.981389 26.273067 -5.367410 -1.623099 -4.918178 0.000000 0.000000 0.000000 1.901607 -3.718687 10.387270 -4.254337 9.432741 -32.423861 1.575359 7.624795 35.347230 13.296945 9.480953 -12.495280 0.000000 0.000000 0.000000 2.813759 -0.006250 -2.339803 -1.073371 0.926422 -7.058408 -1.365493 -1.688571 11.648129 0.003500 0.079780 0.002238 -1.447505 -0.414872 11.827533 1.294714 -1.483516 1.204239 0.000000 0.000000 0.000000 0.255738 0.264705 9.034279 -7.835519 -7.628751 3.446242 -63.060732 -3.222572 -9.783057 -1.782921 -12.399339 3.494385 0.000000 0.000000 0.000000 -4.401504 1.891575 8.206303 29.546961 2.259842 10.591725 47.994428 3.969688 -4.149074 -7.835879 21.492010 -4.119229 0.000000 0.000000 0.000000 
